<svg id="visual" viewBox="0 0 1920 1080" width="1920" height="1080" xmlns="http://www.w3.org/2000/svg" xmlns:xlink="http://www.w3.org/1999/xlink" version="1.1"><rect x="0" y="0" width="1920" height="1080" fill="#27536C"></rect><path d="M0 405L274 402L549 467L823 404L1097 322L1371 390L1646 396L1920 453L1920 1081L1646 1081L1371 1081L1097 1081L823 1081L549 1081L274 1081L0 1081Z" fill="#20455a"></path><path d="M0 439L274 461L549 583L823 495L1097 593L1371 427L1646 516L1920 479L1920 1081L1646 1081L1371 1081L1097 1081L823 1081L549 1081L274 1081L0 1081Z" fill="#1e4256"></path><path d="M0 703L274 572L549 658L823 551L1097 666L1371 566L1646 724L1920 677L1920 1081L1646 1081L1371 1081L1097 1081L823 1081L549 1081L274 1081L0 1081Z" fill="#1d3f52"></path><path d="M0 764L274 841L549 835L823 736L1097 765L1371 829L1646 780L1920 687L1920 1081L1646 1081L1371 1081L1097 1081L823 1081L549 1081L274 1081L0 1081Z" fill="#1c3c4e"></path><path d="M0 832L274 916L549 957L823 902L1097 961L1371 967L1646 925L1920 831L1920 1081L1646 1081L1371 1081L1097 1081L823 1081L549 1081L274 1081L0 1081Z" fill="#1b3a4b"></path></svg>